<svg width="800" height="800" viewBox="0 0 800 800" fill="none" xmlns="http://www.w3.org/2000/svg">
<path fill-rule="evenodd" clip-rule="evenodd" d="M609.999 399.156C609.999 515.602 513.031 609.999 396.499 609.999C279.967 609.999 185.499 515.602 185.499 399.156C185.499 345.763 216.023 345.267 252.282 344.678C290.49 344.057 335.065 343.333 356.999 280.5C395.249 107.959 609.999 234 609.999 399.156ZM520.499 311C520.499 331.853 502.59 351 480.499 351C458.408 351 440.499 331.853 440.499 311C440.499 290.147 458.408 271 480.499 271C502.59 271 520.499 290.147 520.499 311ZM250.499 496.711C265.411 496.711 275.999 479.576 275.999 465.5C275.999 451.424 273.911 442 258.999 442C244.087 442 227.499 455.635 227.499 469.711C227.499 483.786 235.587 496.711 250.499 496.711ZM319.211 521.403C322.512 533.724 317.263 551.207 304.21 554.704C291.157 558.202 281.046 548.786 277.745 536.465C274.443 524.144 285.765 508.318 298.818 504.82C311.871 501.323 315.909 509.083 319.211 521.403ZM374.04 589.503C384.568 583.424 385.059 567.01 379.321 557.072C373.584 547.134 368.268 541.331 357.739 547.41C347.211 553.488 341.057 569.877 346.795 579.815C352.533 589.753 363.512 595.581 374.04 589.503Z" fill="black"/>
<path fill-rule="evenodd" clip-rule="evenodd" d="M397.499 708C567.603 708 705.499 570.104 705.499 400C705.499 376.292 702.82 353.21 697.749 331.039L766.832 198.351L624.802 192.157C568.487 130.604 487.501 92 397.499 92C253.138 92 131.974 191.317 98.6071 325.351L53.9196 276.725L82.2374 399.268L33 368L113.334 519.012C159.883 630.023 269.585 708 397.499 708ZM397.499 665.726C544.255 665.726 663.225 546.756 663.225 400C663.225 253.244 544.255 134.275 397.499 134.275C250.743 134.275 131.774 253.244 131.774 400C131.774 546.756 250.743 665.726 397.499 665.726Z" fill="black"/>
</svg>
